<svg width="45" height="45" viewBox="0 0 45 45" fill="none" xmlns="http://www.w3.org/2000/svg">
<path d="M21.5625 26.25C29.325 26.25 35.625 29.1938 35.625 32.8125V37.5H7.5V32.8125C7.5 29.1938 13.8 26.25 21.5625 26.25ZM33.75 32.8125C33.75 30.225 28.2938 28.125 21.5625 28.125C14.8313 28.125 9.375 30.225 9.375 32.8125V35.625H33.75V32.8125ZM21.5625 9.375C23.303 9.375 24.9722 10.0664 26.2029 11.2971C27.4336 12.5278 28.125 14.197 28.125 15.9375C28.125 17.678 27.4336 19.3472 26.2029 20.5779C24.9722 21.8086 23.303 22.5 21.5625 22.5C19.822 22.5 18.1528 21.8086 16.9221 20.5779C15.6914 19.3472 15 17.678 15 15.9375C15 14.197 15.6914 12.5278 16.9221 11.2971C18.1528 10.0664 19.822 9.375 21.5625 9.375ZM21.5625 11.25C20.3193 11.25 19.127 11.7439 18.2479 12.6229C17.3689 13.502 16.875 14.6943 16.875 15.9375C16.875 17.1807 17.3689 18.373 18.2479 19.2521C19.127 20.1311 20.3193 20.625 21.5625 20.625C22.8057 20.625 23.998 20.1311 24.8771 19.2521C25.7561 18.373 26.25 17.1807 26.25 15.9375C26.25 14.6943 25.7561 13.502 24.8771 12.6229C23.998 11.7439 22.8057 11.25 21.5625 11.25Z" fill="white"/>
</svg>
