<svg xmlns="http://www.w3.org/2000/svg" xmlns:xlink="http://www.w3.org/1999/xlink" viewBox="0 0 6923.87 1119.8"><defs><style>.cls-1{isolation:isolate;}.cls-2{fill:url(#linear-gradient);}.cls-3{fill:#111326;}.cls-4{fill:url(#linear-gradient-2);}.cls-5{fill:#fff;}.cls-6{fill:#f69b00;}.cls-7{font-size:838.92px;fill:#0d0400;font-family:Montserrat-ExtraBoldItalic, Montserrat;font-weight:800;font-style:italic;}.cls-8{letter-spacing:-0.01em;}.cls-9{letter-spacing:-0.02em;}.cls-10{letter-spacing:0em;}.cls-11{opacity:0.78;mix-blend-mode:screen;}.cls-12{fill:#231706;}</style><linearGradient id="linear-gradient" x1="373.13" y1="923.27" x2="992.29" y2="923.27" gradientUnits="userSpaceOnUse"><stop offset="0" stop-color="#754b00"/><stop offset="1" stop-color="#010200"/></linearGradient><linearGradient id="linear-gradient-2" x1="997.74" y1="922.86" x2="1545.48" y2="922.86" gradientUnits="userSpaceOnUse"><stop offset="0" stop-color="#010200"/><stop offset="1" stop-color="#754b00"/></linearGradient></defs><g class="cls-1"><g id="crypto_logo" data-name="crypto logo"><path class="cls-2" d="M731,549.44c-34.65,0-65.1-.65-91.49-1.46-.8,33.16-1.19,67.45-1.12,102.14.43,204.24,17,422.52,61.84,506.26C757.72,1264,917.81,1324.61,999.93,1346l.07,0V500.53C941.86,522.72,847.62,549.44,731,549.44ZM998,958.16,841.71,868,998,625.84ZM998,1138,890.28,991.23,998,1056.34Z" transform="translate(-509.14 -359)"/><path class="cls-3" d="M1484,407.42s-55.55,12.47-215.06,12.47c-159.67,0-269-60.89-269-60.89s-109.31,60.89-268.82,60.89-215.06-12.47-215.06-12.47S507.86,533.49,509.31,690c1.74,186.59,17.18,416.45,76.54,527.59,73.23,136.8,234.95,207.77,333.75,239.67,42.13,13.59,72.82,20.08,80.33,21.53,25.26-4.86,309.62-66.07,414.07-261.2,59.58-111.4,75-342.06,76.68-528.88a.21.21,0,0,0,0-.11C1492.1,532.74,1484,407.42,1484,407.42ZM1420.54,728c-3.63,176.6-20.37,367.73-67.91,456.68a281.62,281.62,0,0,1-21.42,33.87c-91.84,125.07-278.79,176.58-331.28,189-57-13.44-272.71-73.36-352.71-222.83-47.43-88.85-64.14-280-67.75-456.66-1.81-88.33-.35-173,2.19-239.47.05-1.21.09-2.41.14-3.6,35.63,2.43,84.37,4.53,149.31,4.53A708,708,0,0,0,944.8,456.26c22.24-7.09,40.81-14.26,55.13-20.34,14.26,6,32.69,13.15,54.73,20.19a708.09,708.09,0,0,0,214.24,33.41c64.94,0,113.68-2.1,149.31-4.53,0,1.19.09,2.39.14,3.6C1420.89,555,1422.35,639.72,1420.54,728Z" transform="translate(-509.14 -359)"/><path class="cls-4" d="M1360.47,547.57c-26.39.81-56.84,1.46-91.49,1.46-116.6,0-210.84-26.72-269-48.91V1345.6c82.1-21.38,242.26-81.94,299.75-189.63C1352.21,1058,1366,775.9,1360.47,547.57Z" transform="translate(-509.14 -359)"/><path class="cls-5" d="M1018.58,556,1000,584.79l-11.69,18.12L812.68,875,999.93,983l.07,0,18.58,10.72L1224.48,875ZM998,958.16,841.71,868,998,625.84Z" transform="translate(-509.14 -359)"/><polygon class="cls-6" points="488.86 266.84 488.86 599.16 332.57 509.01 488.86 266.84"/><path class="cls-5" d="M1018.58,1044.73,1000,1033.5l-.07,0L812.68,920.29l187.25,255.15.07.09,18.58,25.32,205.9-280.56ZM998,1138,890.28,991.23,998,1056.34Z" transform="translate(-509.14 -359)"/><polygon class="cls-6" points="488.86 697.34 488.86 779.02 381.14 632.23 488.86 697.34"/></g><g id="text_layer" data-name="text layer"><text class="cls-7" transform="translate(1146.28 888.9)">ERC R<tspan class="cls-8" x="2668.56" y="0">E</tspan><tspan class="cls-9" x="3223.93" y="0">V</tspan><tspan class="cls-10" x="3846.41" y="0">OKE</tspan></text><g class="cls-11"><path class="cls-12" d="M2220,789l26-128.36H1786.29L1668.84,1247.9h470.63l26.85-128.36H1858.43l21.26-107.38h261.46L2165.48,888H1904.27l19.6-99Zm555.78-78.86q-61.66-49.49-174.92-49.5H2350L2232.59,1247.9h166.1l31.1-156h83.58l87.5,156h173.66l-99.92-175.73q13.48-4.7,26.09-10.51,65.45-30.21,101.09-85.15t35.66-128.78Q2837.45,759.65,2775.79,710.15Zm-130.45,99q24.32,17.63,24.33,54.53,0,47.82-30.21,73.83t-85.57,26h-98.63l34.84-172h87.28Q2621,791.52,2645.34,809.14Zm453,35.24a173.21,173.21,0,0,1,60-42.79q34.8-15.11,77.6-15.1,44.45,0,76.76,17.62t52.43,51.17l120-95.64q-31.05-53.67-94-82.21t-144.3-28.52q-82.23,0-149.74,26T2980.9,748.32q-48.68,47.4-75.51,112t-26.84,140.93q0,76.35,36.07,134.65t102.77,91q66.69,32.71,156.46,32.72,78.84,0,143.45-24.75t114.09-84.31l-98.15-96.47q-31,36.08-67.53,52a187.7,187.7,0,0,1-75.92,15.94q-44.48,0-76.76-16.36t-49.5-46.14q-17.21-29.77-17.2-69.21,0-43.62,13.42-81T3098.34,844.38ZM4259.81,710.15q-61.67-49.49-174.92-49.5H3834.06L3716.61,1247.9h166.1l31.1-156h83.58l87.5,156h173.66l-99.92-175.73q13.48-4.7,26.09-10.51,65.45-30.21,101.09-85.15t35.66-128.78Q4321.47,759.65,4259.81,710.15Zm-130.45,99q24.31,17.63,24.33,54.53,0,47.82-30.21,73.83t-85.57,26h-98.62l34.83-172h87.28Q4105,791.52,4129.36,809.14Zm208,438.76H4808l26.85-128.36H4527l21.25-107.38h261.46L4834,888H4572.83l19.6-99h296.14l26-128.36H4454.85ZM5433.87,660.65,5194.3,1042.32l-84.25-381.67h-170.3l133.38,587.25h163.59L5605,660.65ZM6063.06,682q-65.43-33.12-156-33.13-80.54,0-148.06,26t-116.2,73.41a333.64,333.64,0,0,0-75.5,111.58q-26.85,64.17-26.84,141.35,0,76.35,35.23,134.23t100.67,91q65.44,33.13,156,33.14,80.54,0,148.07-26t116.19-73.4a333.84,333.84,0,0,0,75.5-111.58Q6199,984.48,6199,907.29q0-76.32-35.24-134.22T6063.06,682ZM6018.6,995.38a207.5,207.5,0,0,1-36.49,65.86,165.19,165.19,0,0,1-57.89,44.88q-34,15.95-77.6,15.94-44.47,0-75.08-16.36a113.15,113.15,0,0,1-47-46.14q-16.37-29.77-16.36-68.37a240.14,240.14,0,0,1,12.58-78,207.63,207.63,0,0,1,36.5-65.86,164.17,164.17,0,0,1,58.3-44.88q34.4-15.93,77.18-15.94,44.46,0,75.09,16.36t47,45.72q16.35,29.37,16.35,68.79A240,240,0,0,1,6018.6,995.38Zm900.15-334.73H6723.29L6458,900.58l48-239.93H6342.42L6225,1247.9h163.59l28.52-142.64,76.18-68.62,135.23,211.26h185.4L6616.76,930.38ZM7407,789l26-128.36H6973.28L6855.83,1247.9h470.64l26.84-128.36H7045.43l21.26-107.38h261.46L7352.47,888h-261.2l19.6-99Z" transform="translate(-509.14 -359)"/></g></g></g></svg>