<svg xmlns="http://www.w3.org/2000/svg" xmlns:xlink="http://www.w3.org/1999/xlink" viewBox="0 0 981.71 1119.8"><defs><style>.cls-1{fill:url(#linear-gradient);}.cls-2{fill:#111326;}.cls-3{fill:url(#linear-gradient-2);}.cls-4{fill:#fff;}.cls-5{fill:#f69b00;}</style><linearGradient id="linear-gradient" x1="373.13" y1="923.27" x2="992.29" y2="923.27" gradientUnits="userSpaceOnUse"><stop offset="0" stop-color="#754b00"/><stop offset="1" stop-color="#010200"/></linearGradient><linearGradient id="linear-gradient-2" x1="997.74" y1="922.86" x2="1545.48" y2="922.86" gradientUnits="userSpaceOnUse"><stop offset="0" stop-color="#010200"/><stop offset="1" stop-color="#754b00"/></linearGradient></defs><g id="crypto_logo" data-name="crypto logo"><path class="cls-1" d="M731,549.44c-34.65,0-65.1-.65-91.49-1.46-.8,33.16-1.19,67.45-1.12,102.14.43,204.24,17,422.52,61.84,506.26C757.72,1264,917.81,1324.61,999.93,1346l.07,0V500.53C941.86,522.72,847.62,549.44,731,549.44ZM998,958.16,841.71,868,998,625.84ZM998,1138,890.28,991.23,998,1056.34Z" transform="translate(-509.14 -359)"/><path class="cls-2" d="M1484,407.42s-55.55,12.47-215.06,12.47c-159.67,0-269-60.89-269-60.89s-109.31,60.89-268.82,60.89-215.06-12.47-215.06-12.47S507.86,533.49,509.31,690c1.74,186.59,17.18,416.45,76.54,527.59,73.23,136.8,234.95,207.77,333.75,239.67,42.13,13.59,72.82,20.08,80.33,21.53,25.26-4.86,309.62-66.07,414.07-261.2,59.58-111.4,75-342.06,76.68-528.88a.21.21,0,0,0,0-.11C1492.1,532.74,1484,407.42,1484,407.42ZM1420.54,728c-3.63,176.6-20.37,367.73-67.91,456.68a281.62,281.62,0,0,1-21.42,33.87c-91.84,125.07-278.79,176.58-331.28,189-57-13.44-272.71-73.36-352.71-222.83-47.43-88.85-64.14-280-67.75-456.66-1.81-88.33-.35-173,2.19-239.47.05-1.21.09-2.41.14-3.6,35.63,2.43,84.37,4.53,149.31,4.53A708,708,0,0,0,944.8,456.26c22.24-7.09,40.81-14.26,55.13-20.34,14.26,6,32.69,13.15,54.73,20.19a708.09,708.09,0,0,0,214.24,33.41c64.94,0,113.68-2.1,149.31-4.53,0,1.19.09,2.39.14,3.6C1420.89,555,1422.35,639.72,1420.54,728Z" transform="translate(-509.14 -359)"/><path class="cls-3" d="M1360.47,547.57c-26.39.81-56.84,1.46-91.49,1.46-116.6,0-210.84-26.72-269-48.91V1345.6c82.1-21.38,242.26-81.94,299.75-189.63C1352.21,1058,1366,775.9,1360.47,547.57Z" transform="translate(-509.14 -359)"/><path class="cls-4" d="M1018.58,556,1000,584.79l-11.69,18.12L812.68,875,999.93,983l.07,0,18.58,10.72L1224.48,875ZM998,958.16,841.71,868,998,625.84Z" transform="translate(-509.14 -359)"/><polygon class="cls-5" points="488.86 266.84 488.86 599.16 332.57 509.01 488.86 266.84"/><path class="cls-4" d="M1018.58,1044.73,1000,1033.5l-.07,0L812.68,920.29l187.25,255.15.07.09,18.58,25.32,205.9-280.56ZM998,1138,890.28,991.23,998,1056.34Z" transform="translate(-509.14 -359)"/><polygon class="cls-5" points="488.86 697.34 488.86 779.02 381.14 632.23 488.86 697.34"/></g></svg>